<?xml version="1.0" encoding="UTF-8"?>
<svg id="Layer_1" xmlns="http://www.w3.org/2000/svg" version="1.1" xmlns:xlink="http://www.w3.org/1999/xlink" viewBox="0 0 1920 1080">
  <!-- Generator: Adobe Illustrator 29.0.1, SVG Export Plug-In . SVG Version: 2.1.0 Build 192)  -->
  <defs>
    <style>
      .st0 {
        fill: #c1b1ff;
      }

      .st1 {
        fill: #ffe686;
      }

      .st2, .st3 {
        fill: #fff;
      }

      .st4 {
        fill: #ffc217;
      }

      .st3, .st5, .st6 {
        fill-rule: evenodd;
      }

      .st7, .st8, .st5, .st6, .st9, .st10 {
        fill: none;
      }

      .st11 {
        fill: #ffe686;
      }

      .st8 {
        stroke: #fff7ce;
        stroke-linecap: round;
        stroke-width: 8px;
      }

      .st8, .st10 {
        stroke-linejoin: round;
      }

      .st12 {
        clip-path: url(#clippath-1);
      }

      .st13 {
        fill: #ffc217;
      }

      .st5 {
        stroke: #c1b1ff;
      }

      .st5, .st6 {
        stroke-width: 66px;
      }

      .st5, .st6, .st9 {
        stroke-miterlimit: 10;
      }

      .st14 {
        fill: #8b17ff;
      }

      .st15 {
        fill: #fff7ce;
      }

      .st6 {
        stroke: #ffc217;
      }

      .st9 {
        stroke-width: 7px;
      }

      .st9, .st10 {
        stroke: #fff;
      }

      .st10 {
        stroke-width: 20px;
      }

      .st16 {
        fill: #a36dff;
      }

      .st17 {
        clip-path: url(#clippath);
      }
    </style>
    <clipPath id="clippath">
      <rect class="st7" x="525" y="102.68" width="843" height="858.06"/>
    </clipPath>
    <clipPath id="clippath-1">
      <rect class="st7" x="525" y="102.68" width="843" height="858.06"/>
    </clipPath>
  </defs>
  <g>
    <rect class="st14" x="390.5" y="-7.77" width="1428" height="1098.29"/>
    <path d="M1818-7.27v1097.29H391V-7.27h1427M1819-8.27H390v1099.29h1429V-8.27h0Z"/>
  </g>
  <g>
    <rect class="st1" x="1191.39" y="-49.1" width="92.02" height="339.86"/>
    <rect class="st13" x="1191.64" y="101.9" width="92.02" height="188.42"/>
    <rect class="st1" x="1309.74" y="-146.39" width="92.02" height="436.72"/>
    <rect class="st13" x="1310" y="47.64" width="92" height="242.12"/>
    <rect class="st1" x="1428.88" y="-4.64" width="92.02" height="294.97"/>
    <rect class="st13" x="1429.13" y="190.83" width="92.02" height="99.12"/>
    <g>
      <g>
        <line class="st9" x1="1161.98" y1="-147.27" x2="1163.71" y2="293.84"/>
        <line class="st9" x1="1595.8" y1="290.83" x2="1162.43" y2="290.83"/>
      </g>
      <polygon class="st3" points="1162.2 -164 1152.21 -146.39 1172.18 -146.39 1162.2 -164"/>
      <polygon class="st3" points="1612 291.05 1594.7 280.88 1594.7 301.22 1612 291.05"/>
    </g>
  </g>
  <g>
    <polyline class="st10" points="1451.98 623.14 1408.24 436.28 1215.01 493 1196.93 341.13 1087.99 334.06 1083.56 156.84 898.8 135.26 813.35 9.62 805.63 -3.7"/>
    <polygon class="st2" points="835.9 -11.14 784.02 -40.94 784.14 18.89 835.9 -11.14"/>
  </g>
  <path class="st5" d="M724.99,175.49c43.35,76.43,17.63,174.17-57.47,218.3-75.09,44.13-171.11,17.94-214.47-58.49-43.35-76.43-17.63-174.17,57.47-218.3,75.09-44.13,171.11-17.94,214.47,58.49Z"/>
  <path class="st6" d="M453.56,336.17c-43.35-76.43-17.63-174.17,57.47-218.3,75.09-44.13,171.11-17.94,214.47,58.49"/>
  <g>
    <path class="st1" d="M689.99,683.88c-.27-76.89-61.45-139.17-136.99-139.44v139.44h136.99Z"/>
    <path class="st0" d="M540.5,541.38c-40.84,0-77.52,18.12-102.7,46.89-8.06,9.21-14.94,19.51-20.41,30.66l123.61,61.89v-139.44c-.17,0-.33,0-.5,0Z"/>
    <path class="st16" d="M399,693.55c0,51.95,27.81,97.3,69.11,121.44l68.89-121.95-123.61-61.89c-9.21,18.79-14.39,39.98-14.39,62.4Z"/>
    <path class="st13" d="M626.86,817.01l-78.86-114.81-68.89,121.95c20.14,11.78,43.49,18.51,68.39,18.51,29.56,0,56.94-9.5,79.36-25.65Z"/>
    <path class="st15" d="M693,695.58c0-.17,0-.34,0-.51h-136.99l78.86,114.81c35.18-25.35,58.14-67.1,58.14-114.3Z"/>
  </g>
  <g>
    <polyline class="st8" points="634 891.29 807 772.2 894 855.18 1171.48 722.84 1283 786.45 1376.76 613.93 1462.55 472.54 1579 362 1605.02 424.56"/>
    <ellipse class="st15" cx="807.5" cy="772.71" rx="16.5" ry="16.79"/>
    <ellipse class="st15" cx="630.5" cy="891.8" rx="16.5" ry="16.79"/>
    <ellipse class="st15" cx="894.5" cy="853.12" rx="16.5" ry="16.79"/>
    <ellipse class="st15" cx="1282.5" cy="783.91" rx="16.5" ry="16.79"/>
    <ellipse class="st15" cx="1462.5" cy="474.48" rx="16.5" ry="16.79"/>
    <ellipse class="st15" cx="1575.5" cy="361.49" rx="16.5" ry="16.79"/>
    <ellipse class="st15" cx="1605.5" cy="421.55" rx="16.5" ry="16.79"/>
  </g>
  <g class="st17">
    <g class="st12">
      <path class="st4" d="M735.01,585.38c-7.27,0-13.33,2.46-18.18,7.37-4.86,4.91-7.29,11.21-7.29,18.9s2.36,13.78,7.08,18.9c4.72,5.13,10.62,7.69,17.71,7.69,7.63,0,13.83-2.48,18.59-7.45,4.77-4.97,7.15-11.35,7.15-19.14s-2.34-13.86-7.01-18.82c-4.68-4.97-10.69-7.45-18.05-7.45"/>
      <rect class="st11" x="799.4" y="352.37" width="63.65" height="169.9"/>
      <rect class="st4" x="799.4" y="522.27" width="63.65" height="108.12"/>
      <path class="st4" d="M1083.7,562.47c-2.85,8.7-4.8,16.32-5.87,22.86h-.71c-1.19-8.92-2.85-16.65-4.98-23.2l-33.97-105.51h-62.25l73.99,173.08-9.6,21.51c-5.69,12.98-15.77,19.48-30.24,19.48-8.78,0-16.9-2.09-24.37-6.27v42.68c8.77,2.93,19.98,4.4,33.62,4.4,35.81,0,62.61-22.52,80.39-67.57l73.99-187.31h-55.67l-34.33,105.85Z"/>
      <rect class="st11" x="892.13" y="352.37" width="63.65" height="102.11"/>
      <rect class="st4" x="892.13" y="454.48" width="63.65" height="175.9"/>
    </g>
  </g>
  <rect class="st0" x="1367.96" y="796.37" width="92.02" height="339.86"/>
  <rect class="st16" x="1368.21" y="947.37" width="92.02" height="188.42"/>
  <rect class="st0" x="1486.31" y="699.08" width="92.02" height="436.72"/>
  <rect class="st16" x="1486.57" y="893.11" width="92" height="242.12"/>
  <rect class="st0" x="1605.46" y="840.83" width="92.02" height="294.97"/>
  <rect class="st16" x="1605.71" y="1036.29" width="92.02" height="99.12"/>
  <g>
    <g>
      <line class="st9" x1="1338.55" y1="698.2" x2="1340.28" y2="1139.31"/>
      <line class="st9" x1="1772.37" y1="1136.3" x2="1339" y2="1136.3"/>
    </g>
    <polygon class="st3" points="1338.77 681.47 1328.78 699.08 1348.75 699.08 1338.77 681.47"/>
    <polygon class="st3" points="1788.57 1136.52 1771.27 1126.35 1771.27 1146.68 1788.57 1136.52"/>
  </g>
</svg>