<?xml version="1.0" encoding="UTF-8"?>
<svg id="Layer_1" xmlns="http://www.w3.org/2000/svg" version="1.1" viewBox="0 0 2000 2000">
  <!-- Generator: Adobe Illustrator 29.0.1, SVG Export Plug-In . SVG Version: 2.1.0 Build 192)  -->
  <defs>
    <style>
      .st0 {
        fill: #ffc217;
      }

      .st1 {
        fill: #ffe686;
      }
    </style>
  </defs>
  <path class="st0" d="M497.93,1125.21c-17.24,0-31.62,5.73-43.14,17.18-11.53,11.45-17.29,26.14-17.29,44.06s5.6,32.11,16.8,44.06c11.2,11.95,25.21,17.92,42.01,17.92,18.1,0,32.8-5.79,44.11-17.36,11.31-11.58,16.97-26.45,16.97-44.62s-5.55-32.3-16.64-43.88c-11.1-11.58-25.37-17.36-42.82-17.36Z"/>
  <rect class="st1" x="650.61" y="582.3" width="150.99" height="395.7"/>
  <rect class="st0" x="650.61" y="978" width="150.99" height="251.99"/>
  <path class="st0" d="M1325.02,1071.4c-6.75,20.26-11.39,38.02-13.92,53.28h-1.69c-2.82-20.78-6.75-38.81-11.81-54.07l-80.58-245.88h-147.66l175.51,403.35-22.78,50.12c-13.5,30.25-37.41,45.39-71.72,45.39-20.82,0-40.08-4.87-57.8-14.6v99.46c20.81,6.84,47.39,10.26,79.74,10.26,84.94,0,148.51-52.49,190.7-157.47l175.51-436.5h-132.05l-81.43,246.66Z"/>
  <rect class="st1" x="870.43" y="581.96" width="150.99" height="237.67"/>
  <rect class="st0" x="870.43" y="819.64" width="150.99" height="410.02"/>
</svg>